<svg width="85" height="19" viewBox="0 0 85 19" fill="none" xmlns="http://www.w3.org/2000/svg">
<path d="M20.5504 8.30532V10.6878C20.5504 10.8659 20.6283 10.9958 20.7842 11.0775C20.94 11.1591 21.0922 11.1517 21.2406 11.0552L23.0887 9.87508C23.2297 9.79344 23.3003 9.66727 23.3003 9.49656C23.3003 9.32585 23.2297 9.19968 23.0887 9.11803L21.2406 7.93793C21.0922 7.84144 20.94 7.83402 20.7842 7.91566C20.6283 7.99731 20.5504 8.12719 20.5504 8.30532ZM21.6637 13.9498C21.0477 13.9498 20.4687 13.8328 19.9269 13.5989C19.3851 13.3652 18.9138 13.048 18.513 12.6472C18.1122 12.2464 17.795 11.7751 17.5614 11.2333C17.3274 10.6915 17.2105 10.1126 17.2105 9.49656C17.2105 8.88053 17.3274 8.30161 17.5614 7.7598C17.795 7.21799 18.1122 6.74669 18.513 6.3459C18.9138 5.94511 19.3851 5.62775 19.9269 5.3938C20.4687 5.16016 21.0477 5.04333 21.6637 5.04333C22.2797 5.04333 22.8586 5.16016 23.4005 5.3938C23.9423 5.62775 24.4136 5.94511 24.8144 6.3459C25.2151 6.74669 25.5324 7.21799 25.766 7.7598C25.9999 8.30161 26.1169 8.88053 26.1169 9.49656C26.1169 10.1126 25.9999 10.6915 25.766 11.2333C25.5324 11.7751 25.2151 12.2464 24.8144 12.6472C24.4136 13.048 23.9423 13.3652 23.4005 13.5989C22.8586 13.8328 22.2797 13.9498 21.6637 13.9498ZM21.6637 13.0591C22.6508 13.0591 23.4914 12.7122 24.1856 12.0184C24.8794 11.3243 25.2263 10.4837 25.2263 9.49656C25.2263 8.50943 24.8794 7.66881 24.1856 6.9747C23.4914 6.28089 22.6508 5.93398 21.6637 5.93398C20.6766 5.93398 19.8361 6.28089 19.1423 6.9747C18.4482 7.66881 18.1011 8.50943 18.1011 9.49656C18.1011 10.4837 18.4482 11.3243 19.1423 12.0184C19.8361 12.7122 20.6766 13.0591 21.6637 13.0591Z" fill="white"/>
<path d="M38.0146 7.50767L36.6181 11.9965H35.9603L34.9067 8.77328C34.8942 8.73795 34.8818 8.6995 34.8693 8.65794C34.8589 8.61638 34.8485 8.57169 34.8381 8.5239C34.8277 8.57169 34.8163 8.61638 34.8038 8.65794C34.7934 8.6995 34.782 8.73795 34.7695 8.77328L33.7065 11.9965H33.0488L31.6523 7.50767H32.2633C32.3256 7.50767 32.3776 7.52326 32.4191 7.55443C32.4628 7.58352 32.4919 7.62405 32.5064 7.676L33.3481 10.5532C33.3647 10.6156 33.3803 10.6831 33.3948 10.7559C33.4094 10.8286 33.4239 10.9044 33.4385 10.9834C33.453 10.9044 33.4686 10.8286 33.4852 10.7559C33.5039 10.681 33.5237 10.6135 33.5444 10.5532L34.5077 7.676C34.5222 7.63444 34.5513 7.59599 34.595 7.56066C34.6386 7.52534 34.6906 7.50767 34.7508 7.50767H34.9628C35.0272 7.50767 35.0792 7.5243 35.1187 7.55755C35.1581 7.58872 35.1883 7.62821 35.2091 7.676L36.1692 10.5532C36.19 10.6135 36.2087 10.679 36.2253 10.7496C36.244 10.8182 36.2606 10.8909 36.2752 10.9678C36.2897 10.8909 36.3032 10.8182 36.3157 10.7496C36.3302 10.679 36.3458 10.6135 36.3624 10.5532L37.201 7.676C37.2135 7.63028 37.2415 7.5908 37.2852 7.55755C37.3309 7.5243 37.3839 7.50767 37.4441 7.50767H38.0146ZM39.9557 10.6062C39.7167 10.6145 39.5151 10.6343 39.351 10.6655C39.1868 10.6945 39.0538 10.733 38.952 10.7808C38.8501 10.8265 38.7764 10.8816 38.7306 10.946C38.687 11.0104 38.6652 11.0811 38.6652 11.158C38.6652 11.2328 38.6766 11.2972 38.6995 11.3512C38.7244 11.4032 38.7577 11.4468 38.7992 11.4822C38.8429 11.5154 38.8927 11.5404 38.9488 11.557C39.007 11.5715 39.0704 11.5788 39.139 11.5788C39.3136 11.5788 39.4632 11.5466 39.5879 11.4822C39.7147 11.4157 39.8373 11.3201 39.9557 11.1954V10.6062ZM38.1789 9.25957C38.5384 8.92498 38.9665 8.75769 39.4632 8.75769C39.6461 8.75769 39.8082 8.78782 39.9495 8.84809C40.0929 8.90628 40.2124 8.98941 40.308 9.09747C40.4056 9.20554 40.4794 9.33438 40.5293 9.48401C40.5813 9.63156 40.6072 9.79574 40.6072 9.97654V11.9965H40.308C40.2435 11.9965 40.1947 11.9872 40.1615 11.9685C40.1282 11.9477 40.1002 11.9072 40.0773 11.8469L40.0118 11.5882C39.9308 11.6609 39.8508 11.7264 39.7718 11.7845C39.6928 11.8407 39.6107 11.8885 39.5255 11.9279C39.4424 11.9674 39.352 11.9965 39.2543 12.0152C39.1587 12.036 39.0528 12.0464 38.9364 12.0464C38.8075 12.0464 38.687 12.0287 38.5748 11.9934C38.4646 11.9581 38.369 11.9051 38.288 11.8344C38.2069 11.7617 38.1425 11.6723 38.0947 11.5663C38.049 11.4604 38.0261 11.3357 38.0261 11.1923C38.0261 11.0697 38.0584 10.9502 38.1228 10.8338C38.1893 10.7174 38.2973 10.6135 38.447 10.5221C38.5987 10.4285 38.7971 10.3516 39.0424 10.2914C39.2897 10.2311 39.5941 10.1968 39.9557 10.1885V9.97654C39.9557 9.74794 39.9069 9.57753 39.8092 9.46531C39.7115 9.35309 39.5681 9.29698 39.379 9.29698C39.2502 9.29698 39.1421 9.3136 39.0548 9.34685C38.9676 9.37803 38.8917 9.41232 38.8273 9.44972C38.7629 9.48713 38.7057 9.52246 38.6558 9.55571C38.6059 9.58688 38.553 9.60247 38.4968 9.60247C38.4511 9.60247 38.4116 9.59104 38.3784 9.56818C38.3472 9.54324 38.3212 9.51311 38.3005 9.47778L38.1789 9.25957ZM42.4938 12.0464C42.2298 12.0464 42.0262 11.9726 41.8828 11.8251C41.7415 11.6754 41.6708 11.4655 41.6708 11.1954V9.34374H41.3217C41.2843 9.34374 41.252 9.33231 41.225 9.30945C41.198 9.28451 41.1845 9.24814 41.1845 9.20034V8.92914L41.6989 8.85433L41.8454 7.93474C41.8558 7.89941 41.8734 7.87135 41.8984 7.85057C41.9233 7.82771 41.9565 7.81628 41.9981 7.81628H42.341V8.86056H43.2232V9.34374H42.341V11.1486C42.341 11.2629 42.3691 11.3502 42.4252 11.4105C42.4813 11.4707 42.5561 11.5009 42.6496 11.5009C42.7016 11.5009 42.7463 11.4946 42.7837 11.4822C42.8211 11.4676 42.8533 11.4531 42.8803 11.4385C42.9073 11.4219 42.9302 11.4074 42.9489 11.3949C42.9697 11.3803 42.9894 11.3731 43.0081 11.3731C43.0455 11.3731 43.0756 11.3939 43.0985 11.4354L43.298 11.7627C43.1941 11.8542 43.0715 11.9248 42.9302 11.9747C42.7889 12.0225 42.6434 12.0464 42.4938 12.0464ZM46.0993 9.44037C46.0786 9.46739 46.0588 9.48817 46.0401 9.50272C46.0214 9.51726 45.9944 9.52454 45.9591 9.52454C45.9237 9.52454 45.8863 9.51207 45.8468 9.48713C45.8094 9.46219 45.7637 9.43518 45.7097 9.40608C45.6577 9.37491 45.5944 9.34685 45.5195 9.32191C45.4447 9.29698 45.3512 9.28451 45.239 9.28451C45.0935 9.28451 44.9657 9.31048 44.8556 9.36244C44.7475 9.41439 44.6561 9.48921 44.5812 9.58688C44.5085 9.68248 44.4534 9.79989 44.416 9.93913C44.3807 10.0763 44.363 10.2311 44.363 10.4036C44.363 10.5823 44.3828 10.7413 44.4223 10.8805C44.4617 11.0198 44.5179 11.1372 44.5906 11.2328C44.6654 11.3284 44.7548 11.4011 44.8587 11.451C44.9647 11.5009 45.0831 11.5258 45.214 11.5258C45.3429 11.5258 45.4478 11.5102 45.5289 11.4791C45.6099 11.4479 45.6775 11.4136 45.7315 11.3762C45.7855 11.3388 45.8313 11.3045 45.8687 11.2733C45.9082 11.2421 45.9497 11.2266 45.9934 11.2266C46.0474 11.2266 46.089 11.2473 46.1181 11.2889L46.3082 11.5352C46.2313 11.6287 46.1461 11.7077 46.0526 11.7721C45.9591 11.8365 45.8604 11.8895 45.7564 11.9311C45.6525 11.9705 45.5445 11.9986 45.4323 12.0152C45.32 12.0339 45.2068 12.0433 45.0925 12.0433C44.895 12.0433 44.7101 12.0069 44.5376 11.9342C44.3672 11.8594 44.2176 11.7523 44.0887 11.6131C43.9619 11.4718 43.8612 11.3003 43.7863 11.0988C43.7136 10.8951 43.6772 10.6634 43.6772 10.4036C43.6772 10.1688 43.7105 9.9516 43.777 9.7521C43.8435 9.55051 43.9401 9.37699 44.0669 9.23151C44.1957 9.08604 44.3547 8.97278 44.5438 8.89173C44.7329 8.80861 44.9512 8.76704 45.1985 8.76704C45.4291 8.76704 45.6318 8.80445 45.8063 8.87926C45.983 8.95408 46.1399 9.06007 46.277 9.19722L46.0993 9.44037ZM47.6422 9.19411C47.7731 9.06526 47.9165 8.96239 48.0724 8.8855C48.2282 8.80653 48.4101 8.76704 48.6179 8.76704C48.7925 8.76704 48.9452 8.79614 49.0761 8.85433C49.2091 8.91252 49.3203 8.9946 49.4097 9.10059C49.5011 9.20658 49.5697 9.33438 49.6154 9.48401C49.6611 9.63156 49.684 9.7947 49.684 9.97342V11.9965H49.0169V9.97342C49.0169 9.75937 48.967 9.59312 48.8673 9.47466C48.7696 9.3562 48.62 9.29698 48.4184 9.29698C48.2688 9.29698 48.1295 9.33127 48.0007 9.39985C47.8739 9.46843 47.7544 9.56194 47.6422 9.6804V11.9965H46.972V7.38298H47.6422V9.19411ZM55.9183 7.50767L54.0978 11.9965H53.44L51.6196 7.50767H52.2025C52.2669 7.50767 52.3189 7.5243 52.3584 7.55755C52.3978 7.58872 52.428 7.62821 52.4488 7.676L53.6053 10.6031C53.6676 10.7673 53.7248 10.9564 53.7767 11.1704C53.7996 11.0645 53.8235 10.9637 53.8484 10.8681C53.8754 10.7725 53.9045 10.6842 53.9357 10.6031L55.0891 7.676C55.1057 7.63444 55.1348 7.59599 55.1764 7.56066C55.2179 7.52534 55.2699 7.50767 55.3322 7.50767H55.9183ZM57.1404 8.81692V11.9965H56.4702V8.81692H57.1404ZM57.2526 7.8568C57.2526 7.91707 57.2401 7.97422 57.2152 8.02825C57.1923 8.08229 57.1601 8.13008 57.1186 8.17165C57.077 8.21113 57.0282 8.24334 56.972 8.26828C56.918 8.29114 56.8598 8.30257 56.7975 8.30257C56.7372 8.30257 56.6801 8.29114 56.626 8.26828C56.5741 8.24334 56.5284 8.21113 56.4889 8.17165C56.4494 8.13008 56.4172 8.08229 56.3922 8.02825C56.3694 7.97422 56.3579 7.91707 56.3579 7.8568C56.3579 7.79446 56.3694 7.73627 56.3922 7.68224C56.4172 7.62821 56.4494 7.58145 56.4889 7.54196C56.5284 7.5004 56.5741 7.46819 56.626 7.44533C56.6801 7.42039 56.7372 7.40792 56.7975 7.40792C56.8598 7.40792 56.918 7.42039 56.972 7.44533C57.0282 7.46819 57.077 7.5004 57.1186 7.54196C57.1601 7.58145 57.1923 7.62821 57.2152 7.68224C57.2401 7.73627 57.2526 7.79446 57.2526 7.8568ZM60.1365 9.59935C60.043 9.47882 59.9401 9.39465 59.8279 9.34685C59.7157 9.29905 59.5941 9.27516 59.4632 9.27516C59.2013 9.27516 58.9966 9.37179 58.8491 9.56506C58.7015 9.75625 58.6277 10.0399 58.6277 10.4161C58.6277 10.6114 58.6444 10.7787 58.6776 10.918C58.7109 11.0551 58.7587 11.1673 58.821 11.2546C58.8834 11.3419 58.9592 11.4053 59.0486 11.4448C59.1379 11.4843 59.2387 11.504 59.351 11.504C59.5214 11.504 59.6679 11.4676 59.7905 11.3949C59.9152 11.3201 60.0305 11.2151 60.1365 11.08V9.59935ZM60.8067 7.38298V11.9965H60.4015C60.3121 11.9965 60.255 11.9539 60.23 11.8687L60.1708 11.5227C60.0378 11.6786 59.8861 11.8043 59.7157 11.8999C59.5473 11.9955 59.351 12.0433 59.1265 12.0433C58.9478 12.0433 58.7857 12.008 58.6402 11.9373C58.4947 11.8646 58.3701 11.7596 58.2661 11.6225C58.1622 11.4853 58.0812 11.3159 58.023 11.1143C57.9669 10.9107 57.9388 10.6779 57.9388 10.4161C57.9388 10.1792 57.97 9.95991 58.0324 9.75833C58.0968 9.55675 58.1882 9.38218 58.3067 9.23463C58.4251 9.085 58.5685 8.96863 58.7369 8.8855C58.9073 8.80029 59.0974 8.75769 59.3073 8.75769C59.4943 8.75769 59.6533 8.78782 59.7842 8.84809C59.9152 8.90628 60.0326 8.98837 60.1365 9.09435V7.38298H60.8067ZM63.8364 10.0482C63.8364 9.93601 63.8198 9.83211 63.7865 9.73651C63.7553 9.63884 63.7086 9.55467 63.6462 9.48401C63.5839 9.41128 63.506 9.35517 63.4124 9.31568C63.321 9.27412 63.215 9.25333 63.0945 9.25333C62.8513 9.25333 62.6601 9.32295 62.5209 9.46219C62.3817 9.60143 62.2933 9.79678 62.2559 10.0482H63.8364ZM62.2372 10.4597C62.2456 10.6405 62.2736 10.7974 62.3214 10.9304C62.3692 11.0613 62.4326 11.1704 62.5116 11.2577C62.5926 11.345 62.6882 11.4105 62.7983 11.4541C62.9106 11.4957 63.0353 11.5165 63.1724 11.5165C63.3033 11.5165 63.4166 11.5019 63.5122 11.4728C63.6078 11.4416 63.6909 11.4084 63.7616 11.3731C63.8322 11.3357 63.8925 11.3024 63.9424 11.2733C63.9923 11.2421 64.038 11.2266 64.0795 11.2266C64.1336 11.2266 64.1751 11.2473 64.2042 11.2889L64.3944 11.5352C64.3154 11.6287 64.226 11.7077 64.1263 11.7721C64.0265 11.8365 63.9206 11.8895 63.8083 11.9311C63.6961 11.9705 63.5808 11.9986 63.4623 12.0152C63.3439 12.0339 63.2285 12.0433 63.1163 12.0433C62.896 12.0433 62.6913 12.0069 62.5022 11.9342C62.3152 11.8594 62.152 11.7503 62.0128 11.6069C61.8756 11.4635 61.7676 11.2858 61.6886 11.0738C61.6117 10.8618 61.5733 10.6177 61.5733 10.3413C61.5733 10.121 61.6076 9.91523 61.6761 9.72404C61.7468 9.53285 61.8465 9.3666 61.9754 9.22528C62.1063 9.08396 62.2643 8.97278 62.4492 8.89173C62.6362 8.80861 62.8472 8.76704 63.082 8.76704C63.2774 8.76704 63.4582 8.79925 63.6244 8.86368C63.7907 8.92602 63.9341 9.0185 64.0546 9.14111C64.1751 9.26373 64.2687 9.41439 64.3352 9.59312C64.4037 9.76976 64.438 9.97134 64.438 10.1979C64.438 10.3018 64.4266 10.3714 64.4037 10.4067C64.3809 10.442 64.3393 10.4597 64.279 10.4597H62.2372ZM66.5624 8.76704C66.7973 8.76704 67.0092 8.80549 67.1984 8.88238C67.3895 8.95927 67.5516 9.06838 67.6846 9.20969C67.8197 9.35101 67.9236 9.52246 67.9964 9.72404C68.0691 9.92562 68.1055 10.1521 68.1055 10.4036C68.1055 10.6551 68.0691 10.8816 67.9964 11.0832C67.9236 11.2847 67.8197 11.4572 67.6846 11.6006C67.5516 11.7419 67.3895 11.851 67.1984 11.9279C67.0092 12.0048 66.7973 12.0433 66.5624 12.0433C66.3255 12.0433 66.1115 12.0048 65.9203 11.9279C65.7312 11.851 65.5691 11.7419 65.434 11.6006C65.2989 11.4572 65.195 11.2847 65.1223 11.0832C65.0495 10.8816 65.0132 10.6551 65.0132 10.4036C65.0132 10.1521 65.0495 9.92562 65.1223 9.72404C65.195 9.52246 65.2989 9.35101 65.434 9.20969C65.5691 9.06838 65.7312 8.95927 65.9203 8.88238C66.1115 8.80549 66.3255 8.76704 66.5624 8.76704ZM66.5624 11.5196C66.8492 11.5196 67.0622 11.424 67.2015 11.2328C67.3428 11.0395 67.4134 10.7642 67.4134 10.4067C67.4134 10.0493 67.3428 9.77392 67.2015 9.58065C67.0622 9.3853 66.8492 9.28762 66.5624 9.28762C66.2715 9.28762 66.0554 9.3853 65.914 9.58065C65.7727 9.77392 65.7021 10.0493 65.7021 10.4067C65.7021 10.7642 65.7727 11.0395 65.914 11.2328C66.0554 11.424 66.2715 11.5196 66.5624 11.5196Z" fill="white"/>
<rect x="0.956243" y="0.812749" width="82.8682" height="17.3676" rx="1.11331" stroke="white" stroke-width="0.445322"/>
</svg>
